<svg xmlns="http://www.w3.org/2000/svg" xmlns:xlink="http://www.w3.org/1999/xlink" preserveAspectRatio="xMidYMid" width="60" height="60" viewBox="0 0 60 60">
  <defs>
    <style>
      .cls-1 {
        fill: #00a2ff;
        fill-rule: evenodd;
      }
    </style>
  </defs>
  <path d="M61.306,28.566 C61.306,29.223 61.211,29.832 61.025,30.394 C60.836,30.957 60.554,31.473 60.181,31.941 C59.805,32.411 59.383,32.785 58.915,33.066 C58.445,33.347 57.931,33.582 57.368,33.769 C57.650,34.239 57.883,34.732 58.071,35.246 C58.258,35.762 58.353,36.349 58.353,37.004 C58.353,37.566 58.258,38.129 58.071,38.691 C57.883,39.254 57.650,39.770 57.368,40.238 C56.993,40.614 56.571,40.965 56.103,41.293 C55.632,41.622 55.165,41.879 54.697,42.066 C54.978,42.536 55.211,43.050 55.400,43.613 C55.586,44.176 55.681,44.738 55.681,45.301 C55.681,45.957 55.586,46.544 55.400,47.058 C55.211,47.575 54.978,48.067 54.697,48.535 C54.321,49.005 53.899,49.403 53.431,49.730 C52.961,50.060 52.446,50.271 51.884,50.363 C52.258,50.833 52.539,51.326 52.728,51.839 C52.915,52.356 53.009,52.943 53.009,53.597 C53.009,54.254 52.868,54.911 52.587,55.566 C52.306,56.223 51.930,56.786 51.462,57.254 C50.900,57.724 50.289,58.097 49.634,58.379 C48.977,58.660 48.274,58.800 47.525,58.800 L28.962,58.800 C28.305,58.800 27.556,58.708 26.712,58.519 C25.868,58.333 24.976,58.051 24.040,57.676 C23.102,57.394 22.164,57.043 21.228,56.621 C20.290,56.199 19.351,55.801 18.415,55.425 C17.290,54.957 16.187,54.490 15.111,54.019 C14.032,53.551 13.258,53.316 12.790,53.316 L-0.007,53.316 L-0.007,25.894 L1.118,25.754 C6.462,25.754 10.118,25.754 12.087,25.754 C12.931,25.754 13.704,25.661 14.407,25.472 C15.111,25.286 15.836,24.910 16.587,24.347 C17.431,23.879 18.391,23.222 19.470,22.379 C20.547,21.535 21.836,20.504 23.337,19.285 C26.242,16.848 27.954,13.800 28.470,10.144 C28.984,6.488 29.243,4.379 29.243,3.816 C29.243,3.254 29.384,2.715 29.665,2.199 C29.946,1.685 30.320,1.285 30.790,1.004 C31.258,0.630 31.750,0.371 32.267,0.230 C32.781,0.089 33.273,0.019 33.743,0.019 C34.493,0.019 35.242,0.114 35.993,0.300 C36.743,0.489 37.446,0.911 38.103,1.566 C38.758,2.223 39.274,3.091 39.650,4.168 C40.023,5.247 40.212,6.677 40.212,8.457 C40.212,10.052 40.093,11.575 39.861,13.027 C39.626,14.482 39.320,15.864 38.946,17.176 C38.665,18.489 38.314,19.685 37.892,20.761 C37.470,21.840 37.118,22.754 36.837,23.504 L55.962,23.504 C56.806,23.504 57.531,23.622 58.142,23.855 C58.751,24.090 59.337,24.442 59.900,24.910 C60.368,25.380 60.719,25.919 60.954,26.527 C61.187,27.138 61.306,27.817 61.306,28.566 L61.306,28.566 L61.306,28.566 ZM55.962,31.519 C56.430,31.519 56.852,31.449 57.228,31.308 C57.601,31.168 57.883,30.957 58.071,30.675 C58.353,30.394 58.586,30.091 58.775,29.762 C58.961,29.434 59.056,29.036 59.056,28.566 C59.056,27.817 58.775,27.160 58.212,26.597 C57.650,26.035 56.898,25.754 55.962,25.754 L47.525,25.754 C47.525,25.848 47.525,25.848 47.525,25.754 L33.040,25.754 L33.884,24.066 C36.508,17.597 37.822,12.394 37.822,8.457 C37.822,5.363 37.305,3.559 36.275,3.043 C35.242,2.528 34.398,2.269 33.743,2.269 C33.462,2.269 33.040,2.410 32.478,2.691 C31.915,2.972 31.634,3.348 31.634,3.816 C31.634,4.379 31.586,5.317 31.493,6.629 C31.399,7.943 31.118,9.441 30.650,11.129 C30.179,12.816 29.500,14.552 28.611,16.332 C27.719,18.114 26.477,19.661 24.884,20.972 C23.289,22.286 21.953,23.387 20.876,24.277 C19.797,25.169 18.789,25.894 17.853,26.457 C16.914,27.019 15.976,27.441 15.040,27.722 C14.102,28.004 13.118,28.144 12.087,28.144 C11.336,28.144 10.516,28.144 9.626,28.144 C8.734,28.144 7.820,28.144 6.884,28.144 C6.040,28.144 5.218,28.144 4.423,28.144 C3.625,28.144 2.947,28.144 2.384,28.144 L2.384,50.926 L12.790,50.926 C13.445,50.926 14.313,51.136 15.392,51.558 C16.468,51.980 17.804,52.521 19.400,53.175 C20.149,53.551 20.968,53.949 21.861,54.371 C22.750,54.793 23.618,55.144 24.462,55.425 C25.398,55.707 26.242,55.966 26.993,56.199 C27.743,56.434 28.400,56.551 28.962,56.551 L44.571,56.551 L47.525,56.551 C47.993,56.551 48.415,56.458 48.790,56.269 C49.164,56.082 49.493,55.847 49.775,55.566 C50.056,55.379 50.267,55.098 50.407,54.722 C50.548,54.349 50.618,53.973 50.618,53.597 C50.618,53.129 50.548,52.732 50.407,52.402 C50.267,52.075 50.056,51.769 49.775,51.488 C49.493,51.207 49.164,50.996 48.790,50.855 C48.415,50.715 47.993,50.644 47.525,50.644 L47.243,50.644 L47.243,48.254 L50.478,48.254 C50.851,48.254 51.227,48.183 51.603,48.043 C51.976,47.902 52.306,47.691 52.587,47.410 C52.774,47.129 52.961,46.801 53.150,46.426 C53.336,46.052 53.431,45.676 53.431,45.301 C53.431,44.927 53.336,44.551 53.150,44.176 C52.961,43.802 52.774,43.472 52.587,43.191 C52.306,43.004 51.976,42.817 51.603,42.629 C51.227,42.442 50.851,42.347 50.478,42.347 L49.493,42.347 L49.493,39.957 L53.009,39.957 C53.383,39.957 53.758,39.886 54.134,39.746 C54.508,39.605 54.837,39.394 55.118,39.113 C55.400,38.832 55.632,38.504 55.822,38.129 C56.008,37.755 56.103,37.379 56.103,37.004 C56.103,36.536 56.008,36.114 55.822,35.738 C55.632,35.364 55.400,35.083 55.118,34.894 C54.837,34.613 54.508,34.380 54.134,34.191 C53.758,34.004 53.383,33.910 53.009,33.910 L51.884,33.910 L51.884,31.519 L55.962,31.519 L55.962,31.519 L55.962,31.519 L55.962,31.519 L55.962,31.519 Z" class="cls-1"/>
</svg>
