<svg xmlns="http://www.w3.org/2000/svg" xmlns:xlink="http://www.w3.org/1999/xlink" preserveAspectRatio="xMidYMid" width="60" height="60" viewBox="0 0 60 60">
  <defs>
    <style>
      .cls-1 {
        fill: #5474fd;
        fill-rule: evenodd;
      }
    </style>
  </defs>
  <path d="M56.547,53.592 L53.593,56.546 L37.281,40.233 C36.343,41.077 35.312,41.828 34.187,42.483 C33.062,43.140 31.889,43.702 30.672,44.171 C29.452,44.641 28.162,44.992 26.804,45.225 C25.444,45.460 24.108,45.577 22.797,45.577 C19.608,45.577 16.631,44.968 13.867,43.749 C11.101,42.531 8.686,40.890 6.625,38.827 C4.561,36.766 2.944,34.351 1.773,31.585 C0.600,28.820 0.015,25.889 0.015,22.796 C0.015,19.610 0.600,16.632 1.773,13.866 C2.944,11.102 4.561,8.687 6.625,6.624 C8.686,4.563 11.101,2.945 13.867,1.772 C16.631,0.601 19.608,0.014 22.797,0.014 C25.890,0.014 28.819,0.601 31.586,1.772 C34.350,2.945 36.765,4.563 38.828,6.624 C40.889,8.687 42.530,11.102 43.750,13.866 C44.967,16.632 45.578,19.610 45.578,22.796 C45.578,24.109 45.459,25.445 45.226,26.803 C44.991,28.163 44.640,29.453 44.172,30.670 C43.701,31.890 43.139,33.061 42.484,34.186 C41.827,35.311 41.078,36.344 40.234,37.280 L56.547,53.592 L56.547,53.592 ZM2.406,22.796 C2.406,25.608 2.920,28.234 3.953,30.670 C4.983,33.109 6.436,35.265 8.312,37.139 C10.186,39.016 12.366,40.492 14.851,41.569 C17.334,42.648 19.984,43.186 22.797,43.186 C25.609,43.186 28.233,42.648 30.672,41.569 C33.108,40.492 35.264,39.016 37.140,37.139 C39.015,35.265 40.491,33.109 41.570,30.670 C42.647,28.234 43.187,25.608 43.187,22.796 C43.187,19.983 42.647,17.335 41.570,14.850 C40.491,12.367 39.015,10.188 37.140,8.311 C35.264,6.437 33.108,4.984 30.672,3.952 C28.233,2.921 25.609,2.405 22.797,2.405 C19.984,2.405 17.334,2.921 14.851,3.952 C12.366,4.984 10.186,6.437 8.312,8.311 C6.436,10.188 4.983,12.367 3.953,14.850 C2.920,17.335 2.406,19.983 2.406,22.796 L2.406,22.796 Z" class="cls-1"/>
</svg>
