<svg xmlns="http://www.w3.org/2000/svg" xmlns:xlink="http://www.w3.org/1999/xlink" preserveAspectRatio="xMidYMid" width="60" height="60" viewBox="0 0 60 60">
  <defs>
    <style>
      .cls-1 {
        fill: #ff6363;
        fill-rule: evenodd;
      }
    </style>
  </defs>
  <path d="M29.969,0.017 C34.093,0.017 37.985,0.790 41.641,2.337 C45.297,3.884 48.483,6.018 51.203,8.735 C53.921,11.456 56.055,14.642 57.602,18.298 C59.149,21.954 59.922,25.846 59.922,29.970 C59.922,34.096 59.149,37.985 57.602,41.642 C56.055,45.298 53.921,48.486 51.203,51.204 C48.483,53.924 45.297,56.056 41.641,57.603 C37.985,59.149 34.093,59.923 29.969,59.923 C25.842,59.923 21.953,59.149 18.297,57.603 C14.641,56.056 11.453,53.924 8.735,51.204 C6.014,48.486 3.883,45.298 2.336,41.642 C0.789,37.985 0.016,34.096 0.016,29.970 C0.016,25.846 0.789,21.954 2.336,18.298 C3.883,14.642 6.014,11.456 8.735,8.735 C11.453,6.018 14.641,3.884 18.297,2.337 C21.953,0.790 25.842,0.017 29.969,0.017 L29.969,0.017 ZM29.969,57.532 C33.812,57.532 37.398,56.807 40.727,55.353 C44.053,53.900 46.985,51.956 49.516,49.517 C51.953,46.986 53.897,44.057 55.352,40.728 C56.804,37.401 57.531,33.815 57.531,29.970 C57.531,26.127 56.804,22.541 55.352,19.212 C53.897,15.885 51.953,12.954 49.516,10.423 C46.985,7.986 44.053,6.042 40.727,4.587 C37.398,3.135 33.812,2.407 29.969,2.407 C26.124,2.407 22.538,3.135 19.211,4.587 C15.882,6.042 12.953,7.986 10.422,10.423 C7.983,12.954 6.039,15.885 4.586,19.212 C3.132,22.541 2.406,26.127 2.406,29.970 C2.406,33.815 3.132,37.401 4.586,40.728 C6.039,44.057 7.983,46.986 10.422,49.517 C12.953,51.956 15.882,53.900 19.211,55.353 C22.538,56.807 26.124,57.532 29.969,57.532 L29.969,57.532 ZM45.016,19.282 C45.297,18.909 45.695,18.720 46.211,18.720 C46.725,18.720 47.171,18.909 47.547,19.282 C47.828,19.658 47.969,20.104 47.969,20.618 C47.969,21.135 47.780,21.532 47.406,21.814 L26.875,41.782 C26.781,41.971 26.616,42.088 26.383,42.134 C26.148,42.182 25.937,42.204 25.750,42.204 C25.469,42.204 25.210,42.182 24.977,42.134 C24.742,42.088 24.577,41.971 24.485,41.782 L16.469,33.767 C16.093,33.393 15.907,32.947 15.907,32.431 C15.907,31.917 16.093,31.517 16.469,31.235 C16.750,30.862 17.148,30.673 17.664,30.673 C18.178,30.673 18.624,30.862 19.000,31.235 L25.750,37.985 L45.016,19.282 L45.016,19.282 Z" class="cls-1"/>
</svg>
