<svg xmlns="http://www.w3.org/2000/svg" xmlns:xlink="http://www.w3.org/1999/xlink" preserveAspectRatio="xMidYMid" width="20" height="20.062" viewBox="0 0 20 20.062" display="none">
  <!-- <defs>
    <style>
      .cls-1 {
        fill: #fff;
        fill-rule: evenodd;
      }
    </style>
  </defs> -->
  <symbol id="search" >
    <g>
      <path d = "M19.993,19.011 L18.949,20.058 L13.182,14.274 C12.850,14.573 12.486,14.840 12.088,15.072 C11.690,15.305 11.276,15.504 10.845,15.670 C10.414,15.837 9.958,15.962 9.478,16.044 C8.997,16.127 8.525,16.169 8.061,16.169 C6.934,16.169 5.881,15.953 4.904,15.521 C3.926,15.089 3.072,14.507 2.344,13.776 C1.614,13.045 1.043,12.189 0.629,11.208 C0.214,10.228 0.007,9.189 0.007,8.092 C0.007,6.962 0.214,5.907 0.629,4.926 C1.043,3.946 1.614,3.090 2.344,2.358 C3.072,1.627 3.926,1.054 4.904,0.638 C5.881,0.223 6.934,0.015 8.061,0.015 C9.155,0.015 10.190,0.223 11.168,0.638 C12.146,1.054 12.999,1.627 13.729,2.358 C14.457,3.090 15.038,3.946 15.469,4.926 C15.899,5.907 16.115,6.962 16.115,8.092 C16.115,8.558 16.073,9.031 15.991,9.513 C15.908,9.995 15.783,10.452 15.618,10.884 C15.452,11.316 15.253,11.731 15.021,12.130 C14.789,12.529 14.524,12.895 14.226,13.227 L19.993,19.011 L19.993,19.011 ZM0.852,8.092 C0.852,9.089 1.034,10.020 1.399,10.884 C1.763,11.748 2.277,12.513 2.940,13.177 C3.603,13.843 4.374,14.366 5.252,14.748 C6.130,15.130 7.067,15.321 8.061,15.321 C9.055,15.321 9.983,15.130 10.845,14.748 C11.707,14.366 12.469,13.843 13.132,13.177 C13.795,12.513 14.317,11.748 14.698,10.884 C15.079,10.020 15.270,9.089 15.270,8.092 C15.270,7.095 15.079,6.156 14.698,5.275 C14.317,4.395 13.795,3.622 13.132,2.957 C12.469,2.292 11.707,1.777 10.845,1.411 C9.983,1.046 9.055,0.862 8.061,0.862 C7.067,0.862 6.130,1.046 5.252,1.411 C4.374,1.777 3.603,2.292 2.940,2.957 C2.277,3.622 1.763,4.395 1.399,5.275 C1.034,6.156 0.852,7.095 0.852,8.092 L0.852,8.092 Z" class="cls-1"/>
    </g>
  </symbol>
  
</svg>
